<svg width="82" height="10" viewBox="0 0 82 10" fill="none" xmlns="http://www.w3.org/2000/svg">
<path d="M3.768 10V2.956H0.24V1.36H8.88V2.956H5.364V10H3.768ZM9.75347 10V0.76H11.3255V3.04H15.1655C15.4695 3.04 15.7455 3.116 15.9935 3.268C16.2415 3.42 16.4415 3.62 16.5935 3.868C16.7455 4.116 16.8215 4.392 16.8215 4.696V10H15.2495V4.756C15.2495 4.716 15.2335 4.684 15.2015 4.66C15.1775 4.628 15.1455 4.612 15.1055 4.612H11.4695C11.4295 4.612 11.3935 4.628 11.3615 4.66C11.3375 4.684 11.3255 4.716 11.3255 4.756V10H9.75347ZM17.7568 10V3.04H19.3288V10H17.7568ZM17.7568 2.344V0.76H19.3288V2.344H17.7568ZM20.7222 10V3.04H26.1342C26.4382 3.04 26.7142 3.116 26.9622 3.268C27.2182 3.42 27.4182 3.62 27.5622 3.868C27.7142 4.116 27.7902 4.392 27.7902 4.696V10H26.2182V4.756C26.2182 4.716 26.2022 4.684 26.1702 4.66C26.1462 4.628 26.1142 4.612 26.0742 4.612H22.4382C22.3982 4.612 22.3622 4.628 22.3302 4.66C22.3062 4.684 22.2942 4.716 22.2942 4.756V10H20.7222ZM29.0777 10V0.76H30.6497V5.728H31.8857L34.3697 3.04H36.0497V3.472L33.2777 6.52L36.0377 9.568V10H34.3697L31.8857 7.312H30.6497V10H29.0777ZM38.4438 10C38.1398 10 37.8638 9.924 37.6158 9.772C37.3678 9.62 37.1678 9.42 37.0158 9.172C36.8638 8.924 36.7878 8.648 36.7878 8.344V4.696C36.7878 4.392 36.8638 4.116 37.0158 3.868C37.1678 3.62 37.3678 3.42 37.6158 3.268C37.8638 3.116 38.1398 3.04 38.4438 3.04H42.1998C42.5038 3.04 42.7798 3.116 43.0278 3.268C43.2838 3.42 43.4838 3.62 43.6278 3.868C43.7798 4.116 43.8558 4.392 43.8558 4.696V7.312H38.3598V8.284C38.3598 8.324 38.3718 8.36 38.3958 8.392C38.4278 8.416 38.4638 8.428 38.5038 8.428H43.8558V10H38.4438ZM38.3598 5.896H42.2838V4.756C42.2838 4.716 42.2678 4.684 42.2358 4.66C42.2118 4.628 42.1798 4.612 42.1398 4.612H38.5038C38.4638 4.612 38.4278 4.628 38.3958 4.66C38.3718 4.684 38.3598 4.716 38.3598 4.756V5.896ZM45.0381 10V4.696C45.0381 4.392 45.1141 4.116 45.2661 3.868C45.4181 3.62 45.6181 3.42 45.8661 3.268C46.1221 3.116 46.3981 3.04 46.6941 3.04H50.5581V4.612H46.7541C46.7141 4.612 46.6781 4.628 46.6461 4.66C46.6221 4.684 46.6101 4.716 46.6101 4.756V10H45.0381Z" fill="white"/>
<path d="M58.2436 10L55.6396 6.892H57.7156L59.9716 9.556V10H58.2436ZM51.3556 10V1.372H58.3156C58.6196 1.372 58.8996 1.448 59.1556 1.6C59.4116 1.752 59.6156 1.956 59.7676 2.212C59.9196 2.46 59.9956 2.736 59.9956 3.04V5.368C59.9956 5.672 59.9196 5.952 59.7676 6.208C59.6156 6.464 59.4116 6.668 59.1556 6.82C58.8996 6.964 58.6196 7.036 58.3156 7.036L52.9396 7.048V10H51.3556ZM53.0836 5.44H58.2436C58.2836 5.44 58.3196 5.428 58.3516 5.404C58.3836 5.38 58.3996 5.348 58.3996 5.308V3.1C58.3996 3.06 58.3836 3.028 58.3516 3.004C58.3196 2.972 58.2836 2.956 58.2436 2.956H53.0836C53.0436 2.956 53.0076 2.972 52.9756 3.004C52.9516 3.028 52.9396 3.06 52.9396 3.1V5.308C52.9396 5.348 52.9516 5.38 52.9756 5.404C53.0076 5.428 53.0436 5.44 53.0836 5.44ZM62.8539 10C62.5499 10 62.2739 9.924 62.0259 9.772C61.7779 9.62 61.5779 9.42 61.4259 9.172C61.2739 8.924 61.1979 8.648 61.1979 8.344V4.696C61.1979 4.392 61.2739 4.116 61.4259 3.868C61.5779 3.62 61.7779 3.42 62.0259 3.268C62.2739 3.116 62.5499 3.04 62.8539 3.04H66.6099C66.9139 3.04 67.1899 3.116 67.4379 3.268C67.6939 3.42 67.8939 3.62 68.0379 3.868C68.1899 4.116 68.2659 4.392 68.2659 4.696V8.344C68.2659 8.648 68.1899 8.924 68.0379 9.172C67.8939 9.42 67.6979 9.62 67.4499 9.772C67.2019 9.924 66.9219 10 66.6099 10H62.8539ZM62.9139 8.428H66.5499C66.5899 8.428 66.6219 8.416 66.6459 8.392C66.6779 8.36 66.6939 8.324 66.6939 8.284V4.756C66.6939 4.716 66.6779 4.684 66.6459 4.66C66.6219 4.628 66.5899 4.612 66.5499 4.612H62.9139C62.8739 4.612 62.8379 4.628 62.8059 4.66C62.7819 4.684 62.7699 4.716 62.7699 4.756V8.284C62.7699 8.324 62.7819 8.36 62.8059 8.392C62.8379 8.416 62.8739 8.428 62.9139 8.428ZM70.8813 10C70.5773 10 70.3013 9.924 70.0533 9.772C69.8053 9.62 69.6053 9.42 69.4533 9.172C69.3013 8.924 69.2253 8.648 69.2253 8.344V4.696C69.2253 4.392 69.3013 4.116 69.4533 3.868C69.6053 3.62 69.8053 3.42 70.0533 3.268C70.3013 3.116 70.5773 3.04 70.8813 3.04H74.6373C74.9413 3.04 75.2173 3.116 75.4653 3.268C75.7213 3.42 75.9213 3.62 76.0653 3.868C76.2173 4.116 76.2933 4.392 76.2933 4.696V8.344C76.2933 8.648 76.2173 8.924 76.0653 9.172C75.9213 9.42 75.7253 9.62 75.4773 9.772C75.2293 9.924 74.9493 10 74.6373 10H70.8813ZM70.9413 8.428H74.5773C74.6173 8.428 74.6493 8.416 74.6733 8.392C74.7053 8.36 74.7213 8.324 74.7213 8.284V4.756C74.7213 4.716 74.7053 4.684 74.6733 4.66C74.6493 4.628 74.6173 4.612 74.5773 4.612H70.9413C70.9013 4.612 70.8653 4.628 70.8333 4.66C70.8093 4.684 70.7973 4.716 70.7973 4.756V8.284C70.7973 8.324 70.8093 8.36 70.8333 8.392C70.8653 8.416 70.9013 8.428 70.9413 8.428ZM78.9795 10C78.6755 10 78.3995 9.924 78.1515 9.772C77.9035 9.62 77.7035 9.42 77.5515 9.172C77.3995 8.924 77.3235 8.648 77.3235 8.344V0.904H78.8955V3.04H81.6075V4.612H78.8955V8.284C78.8955 8.324 78.9075 8.36 78.9315 8.392C78.9635 8.416 78.9995 8.428 79.0395 8.428H81.6075V10H78.9795Z" fill="#F44336"/>
</svg>
