<svg width="19" height="9" viewBox="0 0 19 9" fill="none" xmlns="http://www.w3.org/2000/svg">
<path d="M4.08 9V1.332H0.24V0.36H8.88V1.332H5.052V9H4.08Z" fill="white"/>
<path d="M17.0735 9L14.2535 5.64H15.5255L18.3575 8.988V9H17.0735ZM9.77747 9V0.372H16.9775C17.2415 0.372 17.4815 0.44 17.6975 0.576C17.9215 0.704 18.0975 0.875999 18.2255 1.092C18.3535 1.308 18.4175 1.548 18.4175 1.812V4.344C18.4175 4.608 18.3535 4.848 18.2255 5.064C18.0975 5.28 17.9215 5.456 17.6975 5.592C17.4815 5.72 17.2415 5.784 16.9775 5.784H10.7495V9H9.77747ZM11.2175 4.8H16.9775C17.1055 4.8 17.2135 4.756 17.3015 4.668C17.3975 4.58 17.4455 4.472 17.4455 4.344V1.812C17.4455 1.684 17.3975 1.576 17.3015 1.488C17.2135 1.392 17.1055 1.344 16.9775 1.344H11.2175C11.0895 1.344 10.9775 1.392 10.8815 1.488C10.7935 1.576 10.7495 1.684 10.7495 1.812V4.344C10.7495 4.472 10.7935 4.58 10.8815 4.668C10.9775 4.756 11.0895 4.8 11.2175 4.8Z" fill="#F44336"/>
</svg>
